<mxfile host="app.diagrams.net" agent="Mozilla/5.0 (Windows NT 10.0; Win64; x64) AppleWebKit/537.36 (KHTML, like Gecko) Chrome/130.0.0.0 Safari/537.36 Edg/130.0.0.0" version="24.8.4">
  <diagram id="C5RBs43oDa-KdzZeNtuy" name="Page-1">
    <mxGraphModel grid="1" page="1" gridSize="10" guides="1" tooltips="1" connect="1" arrows="1" fold="1" pageScale="1" pageWidth="827" pageHeight="1310" math="0" shadow="0">
      <root>
        <mxCell id="WIyWlLk6GJQsqaUBKTNV-0" />
        <mxCell id="WIyWlLk6GJQsqaUBKTNV-1" parent="WIyWlLk6GJQsqaUBKTNV-0" />
        <mxCell id="Q-uth9ft7OJXz2bxUMMn-7" value="" style="edgeStyle=orthogonalEdgeStyle;rounded=0;orthogonalLoop=1;jettySize=auto;html=1;" edge="1" parent="WIyWlLk6GJQsqaUBKTNV-1" source="Q-uth9ft7OJXz2bxUMMn-0" target="Q-uth9ft7OJXz2bxUMMn-1">
          <mxGeometry relative="1" as="geometry" />
        </mxCell>
        <mxCell id="Q-uth9ft7OJXz2bxUMMn-0" value="START" style="rounded=1;whiteSpace=wrap;html=1;" vertex="1" parent="WIyWlLk6GJQsqaUBKTNV-1">
          <mxGeometry x="339" width="120" height="60" as="geometry" />
        </mxCell>
        <mxCell id="Q-uth9ft7OJXz2bxUMMn-5" value="Brandon drives to airport" style="edgeStyle=orthogonalEdgeStyle;rounded=0;orthogonalLoop=1;jettySize=auto;html=1;" edge="1" parent="WIyWlLk6GJQsqaUBKTNV-1" source="Q-uth9ft7OJXz2bxUMMn-1" target="Q-uth9ft7OJXz2bxUMMn-2">
          <mxGeometry relative="1" as="geometry" />
        </mxCell>
        <mxCell id="Q-uth9ft7OJXz2bxUMMn-1" value="Character&#39;s house (tutorial)&lt;div&gt;&lt;br&gt;&lt;/div&gt;" style="rounded=0;whiteSpace=wrap;html=1;" vertex="1" parent="WIyWlLk6GJQsqaUBKTNV-1">
          <mxGeometry x="339" y="100" width="120" height="60" as="geometry" />
        </mxCell>
        <mxCell id="Q-uth9ft7OJXz2bxUMMn-6" value="Brandon drives back home" style="edgeStyle=orthogonalEdgeStyle;rounded=0;orthogonalLoop=1;jettySize=auto;html=1;" edge="1" parent="WIyWlLk6GJQsqaUBKTNV-1" source="Q-uth9ft7OJXz2bxUMMn-2" target="Q-uth9ft7OJXz2bxUMMn-3">
          <mxGeometry relative="1" as="geometry" />
        </mxCell>
        <mxCell id="Q-uth9ft7OJXz2bxUMMn-2" value="Airport" style="rounded=0;whiteSpace=wrap;html=1;" vertex="1" parent="WIyWlLk6GJQsqaUBKTNV-1">
          <mxGeometry x="339" y="240" width="120" height="60" as="geometry" />
        </mxCell>
        <mxCell id="Q-uth9ft7OJXz2bxUMMn-10" value="Brandon doesn&#39;t find family" style="edgeStyle=orthogonalEdgeStyle;rounded=0;orthogonalLoop=1;jettySize=auto;html=1;exitX=1;exitY=0.5;exitDx=0;exitDy=0;" edge="1" parent="WIyWlLk6GJQsqaUBKTNV-1" source="Q-uth9ft7OJXz2bxUMMn-3" target="Q-uth9ft7OJXz2bxUMMn-8">
          <mxGeometry relative="1" as="geometry" />
        </mxCell>
        <mxCell id="Q-uth9ft7OJXz2bxUMMn-11" value="Brandon finds family" style="edgeStyle=orthogonalEdgeStyle;rounded=0;orthogonalLoop=1;jettySize=auto;html=1;entryX=0.5;entryY=0;entryDx=0;entryDy=0;exitX=0;exitY=0.5;exitDx=0;exitDy=0;" edge="1" parent="WIyWlLk6GJQsqaUBKTNV-1" source="Q-uth9ft7OJXz2bxUMMn-3" target="Q-uth9ft7OJXz2bxUMMn-9">
          <mxGeometry relative="1" as="geometry" />
        </mxCell>
        <mxCell id="Q-uth9ft7OJXz2bxUMMn-14" value="Brandon finds family and hides with them. It&#39;ll blow over!" style="edgeStyle=orthogonalEdgeStyle;rounded=0;orthogonalLoop=1;jettySize=auto;html=1;" edge="1" parent="WIyWlLk6GJQsqaUBKTNV-1" source="Q-uth9ft7OJXz2bxUMMn-3" target="Q-uth9ft7OJXz2bxUMMn-13">
          <mxGeometry relative="1" as="geometry" />
        </mxCell>
        <mxCell id="Q-uth9ft7OJXz2bxUMMn-3" value="Character&#39;s house (see items section for items)" style="rounded=0;whiteSpace=wrap;html=1;" vertex="1" parent="WIyWlLk6GJQsqaUBKTNV-1">
          <mxGeometry x="339" y="380" width="120" height="60" as="geometry" />
        </mxCell>
        <mxCell id="Q-uth9ft7OJXz2bxUMMn-17" style="edgeStyle=orthogonalEdgeStyle;rounded=0;orthogonalLoop=1;jettySize=auto;html=1;entryX=1;entryY=0.5;entryDx=0;entryDy=0;" edge="1" parent="WIyWlLk6GJQsqaUBKTNV-1" source="Q-uth9ft7OJXz2bxUMMn-8" target="Q-uth9ft7OJXz2bxUMMn-15">
          <mxGeometry relative="1" as="geometry" />
        </mxCell>
        <mxCell id="Q-uth9ft7OJXz2bxUMMn-8" value="Brandon leaves by himself." style="rounded=0;whiteSpace=wrap;html=1;" vertex="1" parent="WIyWlLk6GJQsqaUBKTNV-1">
          <mxGeometry x="639" y="515" width="120" height="60" as="geometry" />
        </mxCell>
        <mxCell id="Q-uth9ft7OJXz2bxUMMn-16" style="edgeStyle=orthogonalEdgeStyle;rounded=0;orthogonalLoop=1;jettySize=auto;html=1;entryX=0;entryY=0.5;entryDx=0;entryDy=0;" edge="1" parent="WIyWlLk6GJQsqaUBKTNV-1" source="Q-uth9ft7OJXz2bxUMMn-9" target="Q-uth9ft7OJXz2bxUMMn-15">
          <mxGeometry relative="1" as="geometry" />
        </mxCell>
        <mxCell id="Q-uth9ft7OJXz2bxUMMn-9" value="Brandon takes his family." style="rounded=0;whiteSpace=wrap;html=1;" vertex="1" parent="WIyWlLk6GJQsqaUBKTNV-1">
          <mxGeometry x="49" y="515" width="120" height="60" as="geometry" />
        </mxCell>
        <mxCell id="Q-uth9ft7OJXz2bxUMMn-24" style="edgeStyle=orthogonalEdgeStyle;rounded=0;orthogonalLoop=1;jettySize=auto;html=1;entryX=0.5;entryY=1;entryDx=0;entryDy=0;" edge="1" parent="WIyWlLk6GJQsqaUBKTNV-1" source="Q-uth9ft7OJXz2bxUMMn-13" target="Q-uth9ft7OJXz2bxUMMn-23">
          <mxGeometry relative="1" as="geometry">
            <Array as="points">
              <mxPoint x="539" y="545" />
            </Array>
          </mxGeometry>
        </mxCell>
        <mxCell id="Q-uth9ft7OJXz2bxUMMn-13" value="Loft ending - Family hunkers down and they eventually run out of supplies." style="rounded=0;whiteSpace=wrap;html=1;" vertex="1" parent="WIyWlLk6GJQsqaUBKTNV-1">
          <mxGeometry x="339" y="515" width="120" height="60" as="geometry" />
        </mxCell>
        <mxCell id="Q-uth9ft7OJXz2bxUMMn-19" value="They continue on foot" style="edgeStyle=orthogonalEdgeStyle;rounded=0;orthogonalLoop=1;jettySize=auto;html=1;" edge="1" parent="WIyWlLk6GJQsqaUBKTNV-1" source="Q-uth9ft7OJXz2bxUMMn-15" target="Q-uth9ft7OJXz2bxUMMn-18">
          <mxGeometry relative="1" as="geometry" />
        </mxCell>
        <mxCell id="Q-uth9ft7OJXz2bxUMMn-15" value="Ilchester road blockage" style="rounded=0;whiteSpace=wrap;html=1;" vertex="1" parent="WIyWlLk6GJQsqaUBKTNV-1">
          <mxGeometry x="339" y="610" width="120" height="60" as="geometry" />
        </mxCell>
        <mxCell id="Q-uth9ft7OJXz2bxUMMn-28" value="Walk through the fields&lt;div&gt;&lt;br&gt;&lt;/div&gt;" style="edgeStyle=orthogonalEdgeStyle;rounded=0;orthogonalLoop=1;jettySize=auto;html=1;" edge="1" parent="WIyWlLk6GJQsqaUBKTNV-1" source="Q-uth9ft7OJXz2bxUMMn-18" target="Q-uth9ft7OJXz2bxUMMn-20">
          <mxGeometry relative="1" as="geometry" />
        </mxCell>
        <mxCell id="Q-uth9ft7OJXz2bxUMMn-18" value="Fields" style="rounded=0;whiteSpace=wrap;html=1;" vertex="1" parent="WIyWlLk6GJQsqaUBKTNV-1">
          <mxGeometry x="339" y="750" width="120" height="60" as="geometry" />
        </mxCell>
        <mxCell id="Q-uth9ft7OJXz2bxUMMn-30" value="They go through the open gate" style="edgeStyle=orthogonalEdgeStyle;rounded=0;orthogonalLoop=1;jettySize=auto;html=1;" edge="1" parent="WIyWlLk6GJQsqaUBKTNV-1" source="Q-uth9ft7OJXz2bxUMMn-20" target="Q-uth9ft7OJXz2bxUMMn-29">
          <mxGeometry relative="1" as="geometry" />
        </mxCell>
        <mxCell id="Q-uth9ft7OJXz2bxUMMn-20" value="Military base outskirts" style="rounded=0;whiteSpace=wrap;html=1;" vertex="1" parent="WIyWlLk6GJQsqaUBKTNV-1">
          <mxGeometry x="339" y="880" width="120" height="50" as="geometry" />
        </mxCell>
        <mxCell id="Q-uth9ft7OJXz2bxUMMn-26" value="Yes" style="edgeStyle=orthogonalEdgeStyle;rounded=0;orthogonalLoop=1;jettySize=auto;html=1;" edge="1" parent="WIyWlLk6GJQsqaUBKTNV-1" source="Q-uth9ft7OJXz2bxUMMn-23" target="Q-uth9ft7OJXz2bxUMMn-1">
          <mxGeometry relative="1" as="geometry" />
        </mxCell>
        <mxCell id="Q-uth9ft7OJXz2bxUMMn-27" value="No" style="edgeStyle=orthogonalEdgeStyle;rounded=0;orthogonalLoop=1;jettySize=auto;html=1;exitX=1;exitY=0.5;exitDx=0;exitDy=0;" edge="1" parent="WIyWlLk6GJQsqaUBKTNV-1" source="Q-uth9ft7OJXz2bxUMMn-23" target="Q-uth9ft7OJXz2bxUMMn-25">
          <mxGeometry relative="1" as="geometry">
            <Array as="points">
              <mxPoint x="779" y="130" />
              <mxPoint x="779" y="1280" />
            </Array>
          </mxGeometry>
        </mxCell>
        <mxCell id="Q-uth9ft7OJXz2bxUMMn-23" value="Try again?" style="rhombus;whiteSpace=wrap;html=1;" vertex="1" parent="WIyWlLk6GJQsqaUBKTNV-1">
          <mxGeometry x="499" y="90" width="80" height="80" as="geometry" />
        </mxCell>
        <mxCell id="Q-uth9ft7OJXz2bxUMMn-33" style="edgeStyle=orthogonalEdgeStyle;rounded=0;orthogonalLoop=1;jettySize=auto;html=1;entryX=0.5;entryY=1;entryDx=0;entryDy=0;" edge="1" parent="WIyWlLk6GJQsqaUBKTNV-1" source="Q-uth9ft7OJXz2bxUMMn-25" target="Q-uth9ft7OJXz2bxUMMn-23">
          <mxGeometry relative="1" as="geometry" />
        </mxCell>
        <mxCell id="Q-uth9ft7OJXz2bxUMMn-25" value="End" style="rounded=1;whiteSpace=wrap;html=1;" vertex="1" parent="WIyWlLk6GJQsqaUBKTNV-1">
          <mxGeometry x="339" y="1250" width="120" height="60" as="geometry" />
        </mxCell>
        <mxCell id="Q-uth9ft7OJXz2bxUMMn-32" value="They go through the hole in the wall" style="edgeStyle=orthogonalEdgeStyle;rounded=0;orthogonalLoop=1;jettySize=auto;html=1;" edge="1" parent="WIyWlLk6GJQsqaUBKTNV-1" source="Q-uth9ft7OJXz2bxUMMn-29" target="Q-uth9ft7OJXz2bxUMMn-31">
          <mxGeometry relative="1" as="geometry" />
        </mxCell>
        <mxCell id="Q-uth9ft7OJXz2bxUMMn-29" value="Military base" style="rounded=0;whiteSpace=wrap;html=1;" vertex="1" parent="WIyWlLk6GJQsqaUBKTNV-1">
          <mxGeometry x="339" y="990" width="120" height="60" as="geometry" />
        </mxCell>
        <mxCell id="Q-uth9ft7OJXz2bxUMMn-34" value="" style="edgeStyle=orthogonalEdgeStyle;rounded=0;orthogonalLoop=1;jettySize=auto;html=1;" edge="1" parent="WIyWlLk6GJQsqaUBKTNV-1" source="Q-uth9ft7OJXz2bxUMMn-31" target="Q-uth9ft7OJXz2bxUMMn-25">
          <mxGeometry relative="1" as="geometry" />
        </mxCell>
        <mxCell id="Q-uth9ft7OJXz2bxUMMn-31" value="Military base (inside)" style="rounded=0;whiteSpace=wrap;html=1;" vertex="1" parent="WIyWlLk6GJQsqaUBKTNV-1">
          <mxGeometry x="339" y="1120" width="120" height="60" as="geometry" />
        </mxCell>
      </root>
    </mxGraphModel>
  </diagram>
</mxfile>
